<?xml version="1.0" encoding="utf-8"?>
<!-- Generator: Adobe Illustrator 24.2.1, SVG Export Plug-In . SVG Version: 6.00 Build 0)  -->
<svg version="1.1" id="Layer_1" xmlns="http://www.w3.org/2000/svg" xmlns:xlink="http://www.w3.org/1999/xlink" x="0px" y="0px"
	 viewBox="0 0 576 792" style="enable-background:new 0 0 576 792;" xml:space="preserve">
<style type="text/css">
	.st0{fill:#339933;}
</style>
<g>
	<path class="st0" d="M477.7,367.4c-5.7-38.1-21.5-71.4-47.3-99.9c-29.1-32.2-65.4-51.9-107.9-60c-8.4-1.6-17.1-1.9-25.6-2.8
		c-0.7-0.1-1.4-0.4-2.1-0.6h-13.5c-4.8,0.5-9.6,1.1-14.4,1.6c-48.6,5.6-89.2,26.8-121.8,63c-24,26.6-39,57.7-45.5,92.9
		c-1.3,7.2-1.7,14.6-2.6,21.9c-0.2,2-0.6,3.9-0.9,5.9v13.5c0.5,4.8,1.1,9.6,1.6,14.4c5.6,48.8,27.1,89.4,63.4,122.3
		c26,23.5,56.3,38.2,90.6,44.8c6.7,1.3,13.5,1.9,20.3,2.8c1.6,0.2,3.1,0.6,4.7,0.9H300c5.4-0.8,10.8-1.5,16.2-2.3
		c30.3-4.3,58-15.4,82.8-33.3c43.1-31.2,69.2-73.2,78.4-125.6c1.1-6.2,1.7-12.5,2.6-18.8v-24C479.2,378.5,478.5,372.9,477.7,367.4z
		 M164.3,469.3c-13.2-22.6-20.2-46.8-20-75C144,328.1,193.2,267.8,259.9,255c36-6.9,70-1.2,101.7,17.5c4.7,2.8,4.8,3.9,0.9,7.8
		C299.1,343.7,235.8,407,172.4,470.4C168.4,474.4,167.3,474.3,164.3,469.3z M430.8,411.9c-6.8,59.7-48.3,107.6-106.2,123
		c-6,1.6-12.2,2.8-18.3,3.6c-6,0.8-12.2,0.9-15.7,1.2c-29.3,0-54.1-7-77-20.7c-3.6-2.2-3.7-3.6-0.7-6.7
		c15.4-15.4,30.7-30.8,46.1-46.1L403.2,322c4.6-4.6,5.4-4.5,8.7,1.1C428,350.6,434.4,380.3,430.8,411.9z"/>
</g>
</svg>
