<?xml version="1.0" encoding="utf-8"?>
<!-- Generator: Adobe Illustrator 24.2.1, SVG Export Plug-In . SVG Version: 6.00 Build 0)  -->
<svg version="1.1" id="Layer_1" xmlns="http://www.w3.org/2000/svg" xmlns:xlink="http://www.w3.org/1999/xlink" x="0px" y="0px"
	 viewBox="0 0 576 792" style="enable-background:new 0 0 576 792;" xml:space="preserve">
<g>
	<path d="M439.5,334.9c-23.2,0-46.5,0-69.8,0h-4.7v-5c0-21.9,0-43.8,0-65.6c0-7.5-2.4-10-9.8-10c-44.6,0-89.3,0-133.9,0
		c-7.4,0-9.8,2.5-9.8,10c0,21.9,0,43.8,0,65.6v5h-5c-23.1,0-46.2,0-69.4,0c-7.5,0-10.1,2.6-10.1,10.2c0,61.1,0,122.3,0,183.4
		c0,7.5,2.5,10.1,10.2,10.1c100.8,0,201.5,0,302.3,0c7.6,0,10.2-2.5,10.2-10.1V345C449.6,337.5,447,334.9,439.5,334.9z M211.3,522.8
		h-68.8V350.7h68.8V522.8z M311.2,522.9h-45.7v-37.8h45.7V522.9z M349.5,523h-22.8v-4.1c0-13.4,0-26.8,0-40.1c0-6.6-2.7-9.4-9.3-9.5
		c-19.4,0-38.8,0-58.1,0c-6.6,0-9.3,2.8-9.3,9.4c0,13.3,0,26.5,0,39.8v4.3h-22.8v-253h122.4V523z M434.1,522.9h-68.8V350.6h68.8
		V522.9z"/>
	<path d="M334.3,446.3c0,4.5-3.2,7.6-8.3,7.7c-3.5,0.1-7,0-10.5,0c-3.8,0-7.5,0.1-11.2,0c-4.9-0.1-8.4-3.5-8.3-7.8
		c0.1-4.2,3.4-7.4,8.2-7.5c7.4-0.1,14.7-0.1,22.1,0C331.2,438.8,334.3,441.9,334.3,446.3z"/>
	<path d="M280.6,446.3c0,4.2-3.4,7.6-8,7.7c-3.9,0.1-7.8,0-11.6,0c-3.6,0-7.2,0.1-10.9,0c-4.6-0.2-7.7-3.2-7.8-7.4
		c-0.1-4.4,2.9-7.7,7.7-7.8c7.6-0.2,15.2-0.2,22.9,0C277.5,438.9,280.6,442.2,280.6,446.3z"/>
	<path d="M280.6,415.6c0,4.4-3.5,7.6-8.5,7.6c-3.6,0.1-7.2,0-10.9,0c-3.6,0-7.2,0.1-10.9,0c-4.8-0.1-8-3.1-8.1-7.5
		c-0.1-4.4,2.9-7.7,7.8-7.8c7.5-0.2,15-0.2,22.5,0C277.4,408.1,280.7,411.4,280.6,415.6z"/>
	<path d="M334.3,416c-0.2,4.2-3.3,7.1-7.9,7.3c-0.1,0-0.2,0-0.4,0h-10.9c-3.6,0-7.2,0.1-10.9,0c-4.7-0.1-8.1-3.3-8.2-7.5
		c-0.1-4.2,3.1-7.7,7.9-7.8c7.6-0.2,15.2-0.2,22.8,0C331.5,408.2,334.5,411.6,334.3,416z"/>
	<path d="M280.6,385.1c-0.1,4.2-3.5,7.3-8.2,7.5h-10.9c-3.6,0-7.2,0-10.9,0c-5.1-0.1-8.3-3.1-8.3-7.7c0-4.4,3.1-7.5,7.9-7.6
		c7.5-0.1,15-0.1,22.5,0C277.5,377.4,280.8,380.8,280.6,385.1z"/>
	<path d="M280.6,292.5c0.1,4.2-3.3,7.7-7.9,7.7c-7.5,0.1-15,0.1-22.5,0c-4.8-0.1-7.9-3.2-7.9-7.7c0-4.4,3.1-7.4,8-7.5
		c3.7-0.1,7.5,0,11.2,0c3.7,0,7.5-0.1,11.2,0C277.3,285.2,280.6,288.4,280.6,292.5z"/>
	<path d="M334.3,292.7c0,4.3-3,7.4-7.6,7.6c-0.2,0-0.5,0-0.8,0c-3.6,0-7.2,0-10.9,0c-3.7,0-7.5,0.1-11.2,0c-4.6-0.1-8-3.6-7.9-7.8
		c0.1-4.1,3.3-7.3,7.8-7.4c7.6-0.1,15.2-0.1,22.9,0C331.3,285.2,334.3,288.4,334.3,292.7z"/>
	<path d="M334.3,323.7c-0.1,4.2-3.2,7.2-7.8,7.4c-3.8,0.1-7.5,0-11.2,0s-7.5,0.1-11.2,0c-4.6-0.1-8-3.5-8-7.7c0-4.1,3.2-7.4,7.7-7.5
		c7.6-0.1,15.2-0.1,22.8,0C331.4,315.9,334.4,319.2,334.3,323.7z"/>
	<path d="M280.6,354.1c0,4.1-3.3,7.4-7.7,7.7c-0.2,0-0.5,0-0.8,0H261c-3.6,0-7.2,0.1-10.9,0c-4.6-0.1-7.7-3.2-7.8-7.4
		c-0.1-4.3,2.8-7.6,7.4-7.8c7.9-0.2,15.7-0.2,23.6,0C277.6,346.7,280.6,350.1,280.6,354.1z"/>
	<path d="M334.3,354.3c-0.1,4.4-3.2,7.3-8.1,7.5c-0.2,0-0.5,0-0.8,0c-3.4,0-6.7,0-10.1,0c-1.1,0-2.3,0-3.4,0c-2.5,0-5,0-7.5,0
		c-4.9-0.1-8.5-3.3-8.5-7.6c0-4.2,3.2-7.6,8-7.7c7.5-0.1,15-0.2,22.5,0C331.3,346.7,334.4,349.9,334.3,354.3z"/>
	<path d="M334.3,385c-0.1,4.4-3.2,7.4-8.1,7.5c-3.7,0.1-7.5,0-11.2,0c-3.6,0-7.2,0.1-10.9,0c-4.7-0.1-8.1-3.4-8.1-7.6
		c0-4.2,3.2-7.5,8-7.6c7.5-0.1,15-0.1,22.5,0C331.3,377.4,334.4,380.6,334.3,385z"/>
	<path d="M280.6,323.4c0,4.2-3.4,7.6-8,7.7c-7.5,0.1-15,0.1-22.5,0c-4.6-0.1-7.7-3.1-7.8-7.4c-0.1-4.4,2.9-7.5,7.7-7.8
		c0.2,0,0.5,0,0.8,0h10.9v0c3.7,0,7.5-0.1,11.2,0C277.4,316,280.6,319.3,280.6,323.4z"/>
	<path d="M415,503.8c0.1,4.1-3,7.6-7.5,7.8c-5.2,0.3-10.5,0.3-15.7,0c-4.5-0.2-7.6-3.7-7.4-7.8c0.1-4.1,3.3-7.2,7.8-7.5
		c2.5-0.1,5,0,7.5,0s5-0.1,7.5,0C411.7,496.5,414.9,499.7,415,503.8z"/>
	<path d="M415,369.4c0.1,3.9-2.7,7.2-6.8,7.6c-2.8,0.3-5.7,0.1-8.6,0.1c0,0,0,0,0,0c-2.8,0-5.5,0.2-8.2,0c-4.3-0.4-7.2-3.8-7-7.8
		c0.2-4,3.3-7.2,7.6-7.3c5.2-0.2,10.5-0.2,15.7,0C411.9,362,415,365.4,415,369.4z"/>
	<path d="M415,477.1c0,4.1-3.3,7.4-7.7,7.6c-2.6,0.1-5.2,0-7.9,0c-2.4,0-4.8,0.1-7.1,0c-4.5-0.2-7.8-3.3-7.9-7.4
		c-0.2-4.2,2.8-7.7,7.3-7.9c5.3-0.3,10.8-0.3,16.1,0C412.2,469.7,415.1,473.1,415,477.1z"/>
	<path d="M415,423.3c0,4-3.1,7.3-7.3,7.6c-2.7,0.2-5.5,0-8.2,0c-2.6,0-5.2,0.1-7.9,0c-4.2-0.2-7.3-3.5-7.3-7.5s3-7.4,7.3-7.5
		c5.4-0.2,10.7-0.2,16.1,0C412,415.9,415,419.2,415,423.3z"/>
	<path d="M415,396.6c-0.1,3.9-3,7.1-7.1,7.3c-2.7,0.2-5.5,0-8.2,0s-5.5,0.1-8.2,0c-4.1-0.3-7-3.4-7.1-7.3c-0.1-4,2.9-7.6,7.1-7.7
		c5.5-0.2,11-0.2,16.5,0C412.1,389,415.2,392.6,415,396.6z"/>
	<path d="M415,450.2c0,4.1-3.3,7.4-7.7,7.6c-2.6,0.1-5.2,0-7.9,0c-2.5,0-5,0.1-7.5,0c-4.4-0.2-7.6-3.6-7.6-7.7
		c0-4.1,2.9-7.3,7.3-7.5c5.4-0.2,10.8-0.2,16.1,0C412.2,442.9,415.1,446.2,415,450.2z"/>
	<path d="M192.3,504c0,4-3,7.4-7.3,7.6c-5.4,0.3-10.8,0.3-16.1,0c-4.3-0.2-7.3-3.7-7.2-7.7c0-4.1,3.2-7.4,7.7-7.6c2.5-0.1,5,0,7.5,0
		c2.6,0,5.2-0.1,7.9,0C189.1,496.6,192.3,499.9,192.3,504z"/>
	<path d="M192.3,477.1c0,4.1-3.2,7.4-7.7,7.7c-2.6,0.1-5.2,0-7.9,0c-2.5,0-5,0.1-7.5,0c-4.4-0.3-7.7-3.6-7.7-7.7
		c0-4,2.9-7.4,7.3-7.6c5.4-0.3,10.8-0.3,16.1,0C189.4,469.7,192.3,473.1,192.3,477.1z"/>
	<path d="M192.3,369.3c0.1,4.1-2.8,7.3-7.1,7.7c-2.7,0.2-5.5,0-8.2,0c-2.8,0-5.5,0.2-8.2,0c-4.3-0.4-7.2-3.7-7.1-7.8
		c0.1-4,3.3-7.3,7.5-7.4c5.2-0.2,10.5-0.2,15.7,0C189,362,192.2,365.4,192.3,369.3z"/>
	<path d="M192.3,423.2c0,4-3,7.4-7.2,7.6c-2.7,0.2-5.5,0-8.2,0c-2.6,0-5.3,0.1-7.9,0c-4.2-0.2-7.3-3.5-7.4-7.5c0-4,3-7.4,7.2-7.6
		c5.4-0.2,10.8-0.2,16.1,0C189.2,415.9,192.2,419.2,192.3,423.2z"/>
	<path d="M192.3,396.5c0,4.1-3.1,7.2-7.3,7.5c-2.7,0.1-5.5,0-8.2,0c-2.5,0-5,0.1-7.5,0c-4.5-0.2-7.6-3.4-7.6-7.6
		c0-4,3.2-7.4,7.4-7.5c5.4-0.2,10.8-0.2,16.1,0C189.2,389,192.3,392.5,192.3,396.5z"/>
	<path d="M192.3,450.1c0,4-3,7.4-7.2,7.7c-2.7,0.2-5.5,0-8.2,0v0c-2.5,0-5,0.1-7.5,0c-4.4-0.2-7.7-3.5-7.7-7.6c0-4,2.9-7.4,7.2-7.6
		c5.5-0.2,11-0.2,16.5,0C189.4,442.9,192.2,446.2,192.3,450.1z"/>
</g>
</svg>
