<?xml version="1.0" encoding="utf-8"?>
<!-- Generator: Adobe Illustrator 24.2.1, SVG Export Plug-In . SVG Version: 6.00 Build 0)  -->
<svg version="1.1" id="Layer_1" xmlns="http://www.w3.org/2000/svg" xmlns:xlink="http://www.w3.org/1999/xlink" x="0px" y="0px"
	 viewBox="0 0 576 792" style="enable-background:new 0 0 576 792;" xml:space="preserve">
<g>
	<path d="M325.3,393.1c-22.6-8.8-46-8.5-69.1-2.1c-19.1,5.3-29,18.1-30.9,37.8c-1.8,17.9,9.1,29.9,27.1,30c11.7,0,23.5,0,35.2,0H325
		c13.7-0.3,24.3-9,25.5-22.1C352.2,418,345,400.8,325.3,393.1z M324.7,446.8c-12.4,0.1-24.7,0-37.1,0c-11.9,0-23.7,0-35.6,0
		c-10.1,0-15.3-5.5-14.9-15.4c0.6-14.9,7.4-24.4,21.9-28.7c19.2-5.7,38.7-5.7,57.9,0c14.7,4.4,21.5,14.1,21.9,29.4
		C339,441.2,333.8,446.8,324.7,446.8z"/>
	<path d="M288.2,316.4c-17.4-0.1-31.6,13.5-31.7,30.3c-0.2,17.1,13.8,31.1,31.2,31.3c17.5,0.2,31.8-13.5,31.9-30.5
		C319.6,330.3,305.7,316.5,288.2,316.4z M287.9,365.9c-10.7,0-19.4-8.4-19.5-18.7c0-10.5,8.6-18.9,19.6-18.9
		c10.9,0,19.6,8.4,19.5,19C307.4,357.7,298.6,366,287.9,365.9z"/>
	<path d="M309.3,272.7c-5.6,5.7-11.2,11.4-16.9,17c-2.8,2.8-6.2,2.7-9-0.1c-5.7-5.6-11.3-11.3-16.8-17c-2.8-2.9-2.8-6.6-0.3-9
		c2.5-2.4,5.8-2.2,8.7,0.5c1.1,1,2.2,2,3.2,3.2c1,1.1,1.7,2.4,2.6,3.6c0.4-0.3,0.8-0.6,1.2-0.9c0-5.7,0-11.5,0-17.2
		c0-4.4,2.2-6.9,6.1-6.8c3.8,0,5.9,2.5,5.9,7c0,5.7,0,11.4,0.8,17.6c2-2.1,4-4.3,6.1-6.3c3-2.9,6.4-3,9-0.5
		C312.2,266.1,312.1,269.8,309.3,272.7z"/>
	<path d="M309.7,528.3c-2.6,2.5-5.9,2.3-9-0.7c-2-2-3.8-4.2-5.7-6.3c-0.4,0.2-0.7,0.5-1.1,0.7c0,5.7,0,11.5,0,17.2
		c0,4.4-2.2,6.9-6,6.9c-3.8,0-5.9-2.5-6-7c0-5.7,0-11.4-0.9-17.8c-2,2.1-3.9,4.4-6,6.4c-3,2.9-6.4,3.1-9,0.5c-2.5-2.4-2.3-6.1,0.5-9
		c5.6-5.7,11.2-11.4,16.9-17c2.8-2.8,6.1-2.7,9,0.1c5.7,5.6,11.3,11.3,16.9,17C312.1,522.2,312.2,525.9,309.7,528.3z"/>
	<path d="M180.8,400.5c-5.3,5.6-10.7,11.2-16.2,16.7c-2.8,2.9-6.5,3-9,0.5c-2.4-2.5-2.4-5.8,0.3-8.7c2-2.2,4.1-4.3,6.8-7.1
		c-6.3,0-11.8,0-17.2,0c-5.2,0-7.6-2-7.6-6.1c0-4,2.5-5.9,7.8-5.9h17c-2.6-2.7-4.6-4.8-6.6-6.9c-2.8-3.1-2.9-6.5-0.3-9
		c2.5-2.4,6.1-2.2,9,0.8c5.4,5.5,10.8,11.1,16.1,16.7C183.7,394.4,183.6,397.6,180.8,400.5z"/>
	<path d="M438,395.8c0.1,4.5-2.3,6.2-9,6.2h-15.7c2.6,2.8,4.7,4.9,6.7,7c2.8,3.1,2.7,6.6,0.1,9c-2.5,2.2-6,2-8.7-0.7
		c-5.5-5.6-11-11.3-16.4-17c-2.6-2.8-2.6-5.9,0.1-8.7c5.4-5.7,10.9-11.4,16.4-17c2.7-2.7,6.3-2.9,8.7-0.6c2.6,2.4,2.6,5.9-0.2,9
		c-1.9,2.1-3.9,4.2-6.6,7H429C435.4,390,437.9,391.6,438,395.8z"/>
	<path d="M215.7,317.2c0,3.9-2.8,6.5-6.8,6.5c-7.4,0-14.7-0.1-22.1-0.2c-4.6-0.1-7.2-2.2-7.2-5.8c-0.1-3.8,2.6-6.1,7.3-6.2
		c2.3,0,4.6,0,7,0c0.2-0.3,0.4-0.7,0.6-1c-4-3.8-8-7.7-12-11.5c-3.6-3.5-4-6.9-1.2-9.7c2.9-2.9,6.2-2.5,9.7,1.1
		c3.8,3.9,7.7,7.8,11.6,11.7c0.3-0.1,0.7-0.1,1-0.2c0-2.6-0.1-5.1,0-7.7c0.2-4.1,2.6-6.7,6.1-6.6c3.4,0.1,5.7,2.5,5.8,6.5
		C215.7,301.8,215.7,309.5,215.7,317.2z"/>
	<path d="M396.3,317.7c-0.1,3.4-2.5,5.7-6.5,5.8c-7.7,0.2-15.5,0.3-23.2,0.2c-3.9,0-6.5-2.9-6.4-6.8c0-7.4,0.1-14.7,0.2-22.1
		c0.1-4.6,2.2-7.1,5.8-7.2c3.8-0.1,6,2.6,6.2,7.3c0,2.3,0,4.6,0,7c0.3,0.2,0.7,0.4,1,0.6c3.8-4,7.7-8,11.5-12c3.5-3.6,6.8-4,9.7-1.2
		c2.9,2.9,2.5,6.2-1.1,9.7c-3.9,3.8-7.8,7.7-11.7,11.6c0.1,0.3,0.1,0.7,0.2,1c2.6,0,5.1-0.1,7.7,0
		C393.9,311.7,396.4,314.1,396.3,317.7z"/>
	<path d="M215.7,474.7c0,7.7-0.1,15.5-0.2,23.2c0,2.9-1.1,5.5-4.1,5.9c-2,0.2-4.6-0.6-6.3-1.8c-1.1-0.8-1.3-3.1-1.5-4.8
		c-0.2-2.3-0.1-4.7-0.1-7.1c-0.3-0.2-0.6-0.4-0.9-0.5c-3.7,3.8-7.5,7.6-11.2,11.4c-4,4.1-7.3,4.6-10.2,1.5c-2.9-3-2.3-6.2,1.6-10
		c3.8-3.7,7.6-7.5,11.2-12.2c-2.4,0-4.8,0-7.2,0c-4.5-0.1-7.1-2.2-7.2-5.9c-0.1-3.8,2.6-6,7.3-6.1c7.4-0.1,14.7-0.2,22.1-0.2
		C212.9,468.2,215.7,470.8,215.7,474.7z"/>
	<path d="M394.6,502.8c-2.9,2.8-6.2,2.3-9.7-1.3c-3.8-3.9-7.7-7.8-12.5-12.5c0,3.7,0.1,6.3,0,8.9c-0.2,4.1-2.6,6.6-6.2,6.5
		c-3.4-0.1-5.6-2.5-5.7-6.6c-0.2-7.7-0.3-15.5-0.2-23.2c0-3.9,2.9-6.4,6.9-6.4c7.4,0.1,14.7,0.1,22.1,0.2c4.5,0.1,7.1,2.3,7.2,5.9
		c0,3.7-2.6,5.9-7,6.1c-2.2,0.1-4.5,0.1-6.7,0.1c-0.2,0-0.3,0.3-0.9,0.7c4,3.9,7.9,7.9,11.9,11.8
		C397.2,496.5,397.5,499.9,394.6,502.8z"/>
	<path d="M164,266.7c0,3.2-2.8,6-6,6.1c-3.3,0-5.9-2.6-6-5.9c0-3.4,2.5-5.9,5.9-6C161.3,260.8,164,263.4,164,266.7z"/>
	<path d="M423.8,266.8c0,3.3-2.8,6-6,5.9c-3.2-0.1-6-2.9-5.9-6.1c0.1-3.2,2.8-5.8,6.1-5.8C421.4,260.9,423.9,263.5,423.8,266.8z"/>
	<path d="M164,525c0.1,3.2-2.6,6-5.8,6.1c-3.4,0.1-6-2.4-6.1-5.8c-0.1-3.3,2.5-6.1,5.8-6.2C161,519.1,163.9,521.8,164,525z"/>
	<path d="M423.8,525.2c0,3.4-2.6,5.9-5.9,5.9c-3.3,0-6-2.7-6-5.9c0-3.2,2.9-6,6-6C421.2,519.2,423.8,521.9,423.8,525.2z"/>
	<path d="M293.9,213.6c-0.1,3.2-2.9,5.9-6,5.9c-3.3,0-6.1-3-5.9-6.3c0.2-3.2,2.9-5.7,6.2-5.6C291.5,207.7,294,210.4,293.9,213.6z"/>
	<path d="M111.5,395.8c0.1,3.1-2.6,6-5.7,6.1c-3.2,0.2-6-2.4-6.2-5.6c-0.2-3.5,2.5-6.3,5.8-6.3C108.6,389.9,111.4,392.6,111.5,395.8
		z"/>
	<path d="M476.3,396.1c-0.1,3.3-2.7,5.9-6,5.8c-3.2,0-5.9-2.8-6-5.9c0-3.3,2.9-6.2,6.2-6C473.9,390.1,476.4,392.8,476.3,396.1z"/>
	<path d="M293.9,578.3c0.1,3.3-2.5,5.9-5.8,6c-3.4,0.1-6.2-2.6-6.2-6c0.1-3.2,2.8-5.9,6-5.9C291.1,572.4,293.9,575.1,293.9,578.3z"
		/>
	<path d="M177.7,280.2c0,3.3-2.7,5.9-6,5.9c-3.2,0-6-2.8-6-6c0-3.3,2.7-5.9,6.1-5.8C175.2,274.2,177.8,276.8,177.7,280.2z"/>
	<path d="M410.2,280.3c-0.1,3.2-3,5.9-6.2,5.8c-3.3-0.1-5.8-2.9-5.7-6.2c0.1-3.3,2.8-5.8,6.1-5.7
		C407.7,274.3,410.3,277.1,410.2,280.3z"/>
	<path d="M177.7,511.9c-0.1,3.3-2.7,5.8-6.1,5.8c-3.3-0.1-6-2.8-5.9-6c0.1-3.2,2.9-5.9,6.1-5.8C175.2,505.9,177.8,508.6,177.7,511.9
		z"/>
	<path d="M410.2,512c-0.1,3.3-2.8,5.8-6.2,5.7c-3.3-0.1-5.9-2.7-5.8-6.1c0.1-3.3,2.9-5.9,6.1-5.8C407.5,505.9,410.2,508.8,410.2,512
		z"/>
	<path d="M293.9,233c-0.2,3.3-2.9,5.8-6.3,5.6c-3.3-0.1-5.9-2.9-5.7-6.2c0.2-3.2,3-5.9,6.2-5.7C291.5,226.9,294.1,229.7,293.9,233z"
		/>
	<path d="M130.6,396c0,3.3-2.7,6-6,5.9c-3.2-0.1-5.9-2.8-5.9-6.1c0.1-3.2,2.8-6,6.1-5.9C128.1,390,130.7,392.7,130.6,396z"/>
	<path d="M457.2,395.9c0,3.2-2.7,6-5.9,6c-3.3,0-5.9-2.6-5.9-6c0-3.3,2.6-6,5.9-6C454.4,390,457.2,392.7,457.2,395.9z"/>
	<path d="M294,559.2c0,3.2-2.7,6-6,6c-3.2,0-6-2.7-6-5.9c0-3.3,2.6-5.9,6-5.9C291.2,553.3,293.9,555.9,294,559.2z"/>
</g>
</svg>
